<svg id="Layer_1" data-name="Layer 1" xmlns="http://www.w3.org/2000/svg" viewBox="0 0 655.07 168.97"><defs><style>.cls-1{fill:#fff;}.cls-2{font-size:150px;font-family:Roboto-Light, Roboto;}.cls-3{font-family:Roboto-Black, Roboto;}</style></defs><title>alldb-text</title><rect y="15.82" width="114" height="114" rx="35.92" ry="35.92"/><path class="cls-1" d="M252.56,67.18l-18,23.61a.3.3,0,0,0-.05.16h0a.26.26,0,0,0,.29.26l28.35-3.75a.26.26,0,0,1,.29.25v12.43a.27.27,0,0,1-.29.26L234.83,97a.26.26,0,0,0-.29.26h0a.25.25,0,0,0,.06.16l18.15,22.65a.27.27,0,0,1-.08.39l-11.55,6.59a.26.26,0,0,1-.37-.12l-11.31-26.36a.27.27,0,0,0-.24-.16h0a.25.25,0,0,0-.23.15l-12.27,26.56a.26.26,0,0,1-.37.11l-10.43-6.58a.25.25,0,0,1-.06-.38l18-23a.3.3,0,0,0,.05-.16h0a.26.26,0,0,0-.29-.26l-27.77,3.56a.25.25,0,0,1-.29-.25V87.71a.25.25,0,0,1,.29-.25L223.33,91a.26.26,0,0,0,.29-.26h0a.3.3,0,0,0-.05-.16l-17.78-23a.26.26,0,0,1,.08-.38l11.18-6.4a.25.25,0,0,1,.36.11l11.7,26.19a.25.25,0,0,0,.23.15h0a.26.26,0,0,0,.24-.16l11.5-26.36a.26.26,0,0,1,.37-.13l11,6.22A.26.26,0,0,1,252.56,67.18Z" transform="translate(-172.46 -22.82)"/><text class="cls-2" transform="translate(153.64 128.32)">ALL <tspan class="cls-3" x="288.21" y="0">DB</tspan></text></svg>