<svg id="Layer_1" data-name="Layer 1" xmlns="http://www.w3.org/2000/svg" viewBox="0 0 595 595"><defs><style>.cls-1{fill:#fff;}</style></defs><title>alldb</title><rect width="595" height="595" rx="240" ry="240"/><path class="cls-1" d="M620.57,351.48,526.78,474.71a1.38,1.38,0,0,0-.28.82h0a1.35,1.35,0,0,0,1.53,1.34L676,457.3a1.35,1.35,0,0,1,1.52,1.34v64.85a1.35,1.35,0,0,1-1.51,1.34L528,507.21a1.35,1.35,0,0,0-1.51,1.34h0a1.37,1.37,0,0,0,.3.84l94.72,118.23a1.36,1.36,0,0,1-.39,2l-60.31,34.41a1.35,1.35,0,0,1-1.91-.64l-59.06-137.6a1.35,1.35,0,0,0-1.24-.81h-.24a1.34,1.34,0,0,0-1.23.78l-64,138.62a1.35,1.35,0,0,1-1.95.58l-54.44-34.33a1.35,1.35,0,0,1-.34-2l93.8-120.29a1.38,1.38,0,0,0,.28-.83h0a1.34,1.34,0,0,0-1.52-1.34L324,524.81a1.35,1.35,0,0,1-1.52-1.34V458.64A1.35,1.35,0,0,1,324,457.3l144,18.58a1.35,1.35,0,0,0,1.52-1.34h0a1.38,1.38,0,0,0-.28-.83L376.45,353.47a1.34,1.34,0,0,1,.4-2L435.21,318a1.34,1.34,0,0,1,1.9.62l61,136.64a1.34,1.34,0,0,0,1.23.8h.24a1.36,1.36,0,0,0,1.24-.81l60-137.62a1.37,1.37,0,0,1,1.91-.64l57.35,32.46A1.35,1.35,0,0,1,620.57,351.48Z" transform="translate(-202.5 -202.5)"/></svg>